<mxfile host="app.diagrams.net" modified="2023-02-10T21:38:48.157Z" agent="5.0 (X11; Linux x86_64) AppleWebKit/537.36 (KHTML, like Gecko) Chrome/109.0.0.0 Safari/537.36" etag="CXfiIyDzHZxKv43coqmP" version="20.8.20" type="github">
  <diagram name="Page-1" id="7a6c530e-6e37-e111-ec74-82921da8cc10">
    <mxGraphModel dx="1434" dy="741" grid="1" gridSize="10" guides="1" tooltips="1" connect="1" arrows="1" fold="1" page="1" pageScale="1.5" pageWidth="827" pageHeight="1169" background="#eceff3" math="0" shadow="0">
      <root>
        <mxCell id="0" style=";html=1;" />
        <mxCell id="1" style=";html=1;" parent="0" />
        <mxCell id="rcPoYwZRDyphzUQkZkZY-44" value="" style="rounded=1;whiteSpace=wrap;html=1;labelBackgroundColor=none;fontSize=12;fontColor=#0d0d0d;fillColor=#CFCFCF;gradientColor=none;opacity=60;fontStyle=1" parent="1" vertex="1">
          <mxGeometry x="149.5" y="60" width="840.5" height="570" as="geometry" />
        </mxCell>
        <mxCell id="23046e2b9bb16c14-116" value="" style="whiteSpace=wrap;html=1;rounded=1;shadow=0;strokeColor=none;strokeWidth=2;fillColor=#009BFF;fontSize=12;fontColor=#FFFFFF;align=center;arcSize=3;verticalAlign=top;spacingTop=4;opacity=50;fontStyle=1" parent="1" vertex="1">
          <mxGeometry x="173" y="90" width="787" height="516" as="geometry" />
        </mxCell>
        <mxCell id="23046e2b9bb16c14-62" value="Firewall SUTIC" style="shadow=0;dashed=0;html=1;strokeColor=none;labelPosition=center;verticalLabelPosition=bottom;verticalAlign=top;shape=mxgraph.office.concepts.firewall;fillColor=#FFFFFF;rounded=1;fontSize=12;fontColor=#030303;align=center;spacingLeft=5;fontStyle=1" parent="1" vertex="1">
          <mxGeometry x="210" y="273" width="47" height="43" as="geometry" />
        </mxCell>
        <mxCell id="23046e2b9bb16c14-83" value="C" style="text;html=1;strokeColor=none;fillColor=none;align=center;verticalAlign=middle;whiteSpace=wrap;rounded=1;shadow=0;fontSize=12;fontColor=#FFFFFF;fontStyle=1" parent="1" vertex="1">
          <mxGeometry x="1288" y="519" width="20" height="20" as="geometry" />
        </mxCell>
        <mxCell id="rJtXdkc1sMicTIPMUd31-7" value="" style="rounded=1;whiteSpace=wrap;html=1;labelBackgroundColor=none;fillColor=#f55442;strokeColor=#82b366;opacity=70;gradientColor=none;" vertex="1" parent="1">
          <mxGeometry x="495.9" y="205" width="416.18" height="390" as="geometry" />
        </mxCell>
        <mxCell id="rcPoYwZRDyphzUQkZkZY-3" value="&lt;font style=&quot;font-size: 12px;&quot;&gt;HA Proxy&lt;br style=&quot;font-size: 12px;&quot;&gt;Gitlab&lt;br style=&quot;font-size: 12px;&quot;&gt;Gitlab-Runner&lt;br style=&quot;font-size: 12px;&quot;&gt;&lt;/font&gt;" style="verticalLabelPosition=bottom;html=1;verticalAlign=top;strokeColor=none;fillColor=#FFFFFF;shape=mxgraph.azure.virtual_machine;rounded=1;shadow=0;fontSize=12;fontColor=#0d0d0d;align=center;labelPosition=center;fontStyle=1" parent="1" vertex="1">
          <mxGeometry x="648.99" y="273" width="110" height="80" as="geometry" />
        </mxCell>
        <mxCell id="rcPoYwZRDyphzUQkZkZY-18" value="Internet" style="aspect=fixed;perimeter=ellipsePerimeter;html=1;align=left;shadow=0;dashed=0;spacingTop=3;image;image=img/lib/active_directory/internet_cloud.svg;fontColor=#030303;labelPosition=right;verticalLabelPosition=middle;verticalAlign=middle;labelBackgroundColor=none;fontStyle=1;fontSize=12;" parent="1" vertex="1">
          <mxGeometry x="210" y="160" width="50" height="31.5" as="geometry" />
        </mxCell>
        <mxCell id="rcPoYwZRDyphzUQkZkZY-20" value="IP PÃºblico do&lt;br style=&quot;font-size: 12px;&quot;&gt;Projeto" style="edgeStyle=orthogonalEdgeStyle;html=1;startArrow=none;startFill=0;startSize=10;endArrow=none;endFill=0;endSize=10;strokeWidth=3;fontSize=12;fontColor=#0a0a0a;strokeColor=#FFFFFF;dashed=1;rounded=0;entryX=0.532;entryY=0.047;entryDx=0;entryDy=0;entryPerimeter=0;exitX=0.5;exitY=1;exitDx=0;exitDy=0;labelBackgroundColor=none;labelPosition=right;verticalLabelPosition=middle;align=left;verticalAlign=middle;fontStyle=1" parent="1" source="rcPoYwZRDyphzUQkZkZY-18" target="23046e2b9bb16c14-62" edge="1">
          <mxGeometry relative="1" as="geometry">
            <mxPoint x="1337" y="321" as="sourcePoint" />
            <mxPoint x="1337" y="341" as="targetPoint" />
            <Array as="points">
              <mxPoint x="235" y="219" />
              <mxPoint x="235" y="219" />
            </Array>
          </mxGeometry>
        </mxCell>
        <mxCell id="rcPoYwZRDyphzUQkZkZY-25" value="SEMASV046&lt;br style=&quot;font-size: 12px;&quot;&gt;10.233.147.13&lt;br&gt;IP 02" style="text;html=1;align=center;verticalAlign=middle;resizable=0;points=[];autosize=1;strokeColor=none;fillColor=none;fontColor=#030303;fontStyle=1;fontSize=12;" parent="1" vertex="1">
          <mxGeometry x="653.99" y="215" width="100" height="60" as="geometry" />
        </mxCell>
        <mxCell id="rJtXdkc1sMicTIPMUd31-3" value="Gitlab" style="shape=image;html=1;verticalAlign=top;verticalLabelPosition=bottom;labelBackgroundColor=none;imageAspect=0;aspect=fixed;image=https://cdn4.iconfinder.com/data/icons/socialcones/508/Gitlab-128.png;fontStyle=1" vertex="1" parent="1">
          <mxGeometry x="779" y="439.5" width="79.5" height="79.5" as="geometry" />
        </mxCell>
        <mxCell id="rJtXdkc1sMicTIPMUd31-4" value="Gitlab Runner" style="shape=image;imageAspect=0;aspect=fixed;verticalLabelPosition=bottom;verticalAlign=top;labelBackgroundColor=none;image=data:image/png,iVBORw0KGgoAAAANSUhEUgAAAEAAAABACAYAAACqaXHeAAATcUlEQVR4nNybCZBdR3X3f9333rfNptEykmXJsmVtox3JNsYYvAD+XJTB7K7yx2IjA3ECThxCkQTiAAUFdgUDLoJCwC5inBDbCgUyRRWJI9vCFlg2kq1tJHnXvs1otrfdpTvVfe9982akkeaNLJPKqXo1d273PX3+p0+fc3pzOQPKf+gWpBBEOkIKRwhwwlCFrittebGvj0JbW6eAi4AVQCcwC5gEtACZhJUPDADdwGtAF7BJw7Olvr6uprY2WykMFa4rXQ2R0pF2hIPSmvKaH48bgxjPR4UP34LQAiVAxjykEco8BEHkeJ5zGfBe4OoEdH6c8pUTZawD1gZBtMHznEjHgjuAUqBN41poSg83roiGFVD40C2Uqv3ks62m9x00keGiYZqAjwMfBZaM+Exhq9j2xCht67q/aV05os5W4AEN9ws4lNRylNZRudpPIdtKqUFrGLMCDHAhatWlK6QOtdJopiK4DfgUMKUORJQAEOO1tDplGAU6dXyOAj9Ccw+Cw66QItTGHm09tNZjVsRIDZ+UDHjH9Sj2DJp/jd9QfQ/90Aj2WQSbgb9NwIeJECKpJ88APHVW4CbPKmljim0zbvuziSymzDUyGlmNzGNt4JTU9OFPWY0aklI4WtueXQR8H7gyqRaO6KGzTamFpU78cdsZsF2YIaG0KbMWW3z4R6dk5Jyq0Do7g0kgpHRkouWbgTXA/AS4eIPBU2cZqSJmAx8DDgkhNgkhpRmbRnZv0QqCHZtGZTSqAgz4pC3h4OJmPR2F4beBbwHZuh54I4GPpFQRRpYccD3Q6mUzvzGuWaGtbKdSwkkVMAQekRUOVe07OtL/lji6cBQPPYxkzZGfOY2BV701vFVFUWeog1/kpKuj0yjhBK7WecRvhUSKqg5lRjg/B95jwrzhdTqBjSQl4ZDTChddi2/joXHwSmV8xNfRB7LCVQoVRxPNCdFhWC8WhhyeMOMo4+VVRjj/2gh4ZdM7zfcGu5ilylSFHLcdKNtgwisaMy8vkfU9RnaDwWAxmAw2g7GehikgZm6dhyMgqgalu4GPjBW8MdWKcFgcDnBb6TWu8nsIkIkJN0YpryUpr6AhXqkSPmIwCJulCifGNrKdhNJxL6Vj/EKotf4EcPtYwZMo0DTxLr+bUEiuCHpwUSdpduy83pnwurLGa8yUKuH2BEuYYKv3cbEC6sxCZjKZKAlxP0iTi7G2GCJo0YHt+V7hcVHQzwVRiYrxJmMXvMarWYe251Nes6MSZeE0wstNMBgs8xNswzDbf0SsVpuyFktF8+5eU6cuJz8tpSa7LBxgXlRkQDhM0T5vD45b0xUN9N0Qr37mJ7wmJ7zCxniJBIPBcm+CzeJMMCMLH1qV1BQSrSPP9T5jQklddjfmlhSCq/0e8ij7rKwJ9+A0Zro1Xu8wvLRCiZRXd8KroSHlJFjearFpHVmsNuKtMhM6O6FNsjxh5ulfS8ymIas1U8ImHdqxWkVipoklIVkZ9DErqlBh7NHA8CrU89IJr7DfRoNGeCWUZrFfSzAafVrsKcjU53wemNyoAozJlq33H6QzLFIWsQKM6Xdon8vNMLBj9/R2kPJaEg6yIBrOa4oyvHoJRMORJVXA5ARjbWhL4kwpAm1mWLcmhWM2ferNP+imQGSfU0pNVyaGe7qfk3xzVdBNk47ixYY6Xu/yj1le40iunATbrQlWg9nav6NDC+MmYEKSTjZkYUbIvA652u/G1wKptXWsxnTLSN4c9DI9qtAvXAIE/ig/U1ZC4mnFO6o9lpdTx8uY/iVBH+eZpAin0WGQdLTBKG5KMDsuQkQIbcLFJxMNNTT2pR3rDkuDAebpEgMZ13KJknIfSbsOuSbs5hHRYUObOoWExuQ7oyJzRIlBz60l+KbM+IOJOuDNQR8P5grkRljImMSNMX4SwXcMdkHn22havOBy4LfjcX6u0PQFHl+a+zJ3iJep9ro4rq4tcNnxJDW9Aw7dex37PCqZlC2E5g7N1I6QKBSIOnwmozeh/OdtU7lx+2JaZNioAqjD+Lbitp1Pul7nPPPy/XVLT415fy3IyogPnH+UTA7UZkXOjFExDBftzRGhq5GhHnWAGVMPhaC9VZNzdBzw6uoa5agLJde29zDjxQqH/QwZ0bA/SFes3u91zntS2oXNePX2tFPckSSFphRJFrcNsqR5EJUXhLMFQShsK6bHlF3DBtfT0CwIlLAgTaY38mfKVE6QyWlUlPSIjiVWAVTOlejJMMGtcFXHcfzQwRENu8M0GbraYJeOZE6ydE2jzs/Glsjh2qk9eNmQ0Bfkpimq54o4CxfD6xZadM3JnBABBJiJaLZF4zkarYckEiFU2iWZ87V9Nu+um3bMFo8jGqRSdRrsUiAuTlZ4VMPe35i/F/Luacewi7ICZIgVtDJB1oS1y+YK8k0KkRGczAuajtRSkG/RwxbQhYJqVuDM1XY9wIbA0OHtU3qZ0VSmqhpOitLF1azBLpMdGxpVpuHiK8E5uSqXTOyHKB49pueMoEZgI7iIhhSQyWjcpng3Y6TU5juRg3xe27qpUszQUHMFmaxGJ7x8JZnaXGJRS5FqJO1QbJDSD1YYqRfWYWqIQ0ZqDpaz3LlrFsJRZBxlvbIFa8bx3HhsCz0UX3Mt+kRTE7FSss0aNzV/8y4E/3xBrl1h4nYUL9GSzfo89Mp0Nva0UXAjlG44EqQfLJTJXl3DCkiV4ErNl7fN4X1PLmd/JUMmE1jQRmAjuAFggJiUyw6DZgXe8GFgFSSEVU78HM/kK1Ml2enKPhueGS+0m4h/8exCbnh6CWUla4F9nAqYJZPc/4yoLRPwy/0dXLbuYn61r4NsNoh70Bdkz1VUOiQiSJycd+IwGGb+GqQZ9y0S70KNjOKeN73+3PFWrnzsIr63exYtXmhzkDNZbwQmGQU0J/+Mewk31MIq4VAlw/UblvPFzfOJhMbzInQoLJBKi7T+QIp4GNRmI6l/aNZ4bpxC+o5AzNO2rglzGS/gn3bP4orHLuKZ3lbasr41+zMAn2JtkXVb1GdERglZR9PkhtzVdQFXP76SHX1NdkhIY/5zwHeNU9TkmzXai32Fdcki9v7Gwxs+4RyBkwdPBhwLXG783VJu/UOnndS3uKGt8zpRptGVqlNSnPgI20NPdU/g8scv5r6XZuA5AU2tEdXZkiAS5LIKtzCUe4qsCZEaVRVUZkiyU4xD9Vl3eBKXrbuEn+05x1qYTELv60kyOZzwupLpoVYvpBJJVj2ziJufXsLxskPbuVWK0x2bK+RadS1b9Fo0Ga0ZaHdonR3gKsVXt87l2t+u4JVSzoIPz8zkRyPfTU5m5BpZ/xsLmZ4y47c1E/CTV6fzdE8r/7yyi8vn9VCsZMhVNEVPogNNvgDlnKRtkc/LAwU+82wnjx6aTHMmsIt3r6PJp5RiHZDJsZSzQjpRhOnB3YMF3rl+BXdun01+XkRuorJrtpErbPpbWBjw0IFpXPboxTx6ZKIdRsB4Ynwj1C2TMzmML5yOjUwPNrmRzRn++rl5vHfjMvbNzDJpYkhbISKYI/izXZ3c8ORSeiOXNi88WyafUsr6NSezaKVJhd8ynqlwYy3GWVzejdja08Kang5mtlXpb/L42NHFrH1lKq25ALsldXZ7nTqsjxgfkG6ZnvVWdZozZAOODGZYVVqIJzXFwKEt55+NsT4apQ1tkhr9jF1tYuxZpUhOX9jfyLK6FQwh6k5E1dU1QPOOshufJhdocaNhvT6chxj2q/Gt+79BSqclVYNdRooXk6NojFUBkdaEUWR/kQZHJjNB4vfpkZow0rZu/BzZZ5EcYqpGyp7xM+RHqlbPlAWGR/KctpP+rGONht4bbTiy4XmcoS6D3VXaTDLFOmDZWPyA+TrneXiORClNEAb0FUsUcjlcxyGf9aiGAX4Y0ZzN2C8qYURbPk8UhRSD0NZrzXiUg4BIadoKeYIgpBIOlZV8355NyXsuYaRqrVfDiGzOqylysFKhGCqac9ma4k9D6SxknbK7RA0sirpS0j9Y4h/+5BZuvGwJnutSqVb4j/VP8fn7HuQtKy5lzV9+gq/+9AFWP/ocW1ffRf/hF7lx9RqeuPNLRMXjrLz9K8yfv4y1X1jFN+7/Kb/YfpCNd36BQ4f2cdFffYNr3/4O7vv0h7n1O9/HbZ/BPTddj5TSKl1HFa7/5g/4+k0f58IpLWQchz2HD/OVBx7ml5t30pzPWoWOQQG1RVHZtKRT6Ej/HthZt1oyugVozaS2NqZNbOdg93Gy+RZu++D7uHbZXGvWHe0TaM1n0Fowc+pEpk+agCsdOtrbuGDm+Vw6Z6bN/qZMaKUtn8V1XTomtLF0wSKWzpyKEJLJE1ppynrkszmmTGiju6+Pba/tY+e+g1QjzQXnTKW9KccrR3tYOudC7rvtZibnPfxo+CLqKXp/p8FssEu0dszQBe4biwKw41lZRVz35a/z/rt+aLW+dOZ0/CCIx23SC9VA4wd2B4JKNbJD5v8tX0yY1Et7yzwbf/CuZZ2Uq9W4zPgCFbfzNz/+Fy69/e+59IvfoutAN815ly1dO1hx859z/1PPM2FiBzMmtNjhcaJbPqkC7rOYtXbMPC0Srh1RPwF667aQRqXUAxvnc6S/z05bjZnWvPOIehA7SikFVy5bxJSmbFI2VE8KwTvftJgWz6nxSKON8Q9UfaTjWD6m1J51iEKO9A/YbFGc3hGmW369WuufGMwaHcnkdIAD4iiwum4L6bQ0ubWVyxfMiw8kVqqjphJ25cgRlMpl5s48j+XnTbPvZZ29FssVls2Zw4JpE2Ol1JWvevc1fO+2T3LFnHMpVX2rOKP8c6ZPZ/msGUihKPvBMH4noXSDabUQ0mB1RLIlRm1yoPk2wh6Fm3gqh6iTVcsN93wLx3HoPt7N2j9sZ9r5C0/aslKKnAPru3Zx/sxZXHfR4kQBcSQxtP75rSyfP59rli6Iy+RQ09df/hb79+CBV3jilR5K5YClnUvY+++rrUX8av0TvHisj3wuV+M3UoQEy7EEY3pwAmnB6LSCNhOjO+q2k09KqVk/vmWHdUr7Duznpf1HyHterVzWmaROdob3HznMb7a+wGWLYpAqGfuGdu/dy1Mv7OWtSxYMdVlS9oXVP2bFbX/Hz57porWQs7yP9vTw+10vWx/x389tw/cjnNEtIFXAHTFGLbFNK2Rpzb2pkMoE3iAMfgg8lZyvOflQSBq6+dur2fDSQZYtWMDUKe3WCRmBKr6PKlcZGZYFEWt/v4nkrFLiaJJEya/wyMbncd36sph27NnL5ue389rRXltQyLls293F/7/7Xqvsa9602E6bR3Fc6YnWpyw2IZx04d1gt3amRa1N3VRoMoWrTHndGZvh6oyUzcJcCeu37yIULsvPO4feUskKtOL8WSxfeCEFT1uFaBVnbiaW/3brdo4V/TgzVENZYtZz+a/Nz1MJY97GMtJMcP706SxaOJeVs2eQ8yRlP7KJ16HuY+wfqHLJgnk2LPqhOmG7IcFgsKxKsMVJZlLRKqA0dKJa+b5vumAX8KdJeTicpaalULAZmys0G7p22wTpY1dcStfOHWzZd5RPXPceNn/3Dppcwf2P/Y5SJGz9jrZW+g8eYMMLe+z/OdexcT8ua+Hgq6+yZd8x+39GSgrZrH2++3OfYdvqO3n2nm+yeMYkmrIOU03YO36cZ17ax6Qp53DJBedSMZFieDQIEwwGy64Em6rHXDsJEuzYRGbRSpSKtBDSFUJsBtqSA1NBWteGDNdh39GjPLFtJ/uP95NxBLsPHGLjrpdY+4et1jEd6enhH3/5a7776/UU8jlb57GtXWx5dT/7+wfpGxxg3ZYu9vT0kXEFT2zdSdeegxwYKHKk97gtOzJYolgu8rudL7LxhZd5eucu1m3ZSX9FsWHHTja++BrHSmV6bKK018piFJaYbHq+8TtCiLvMMIhUFBnHW3+1Zpi67FFZpUxMtUdls24+qgalB+tPixoTHyyXjd2Sb2qyZ8FKxTI4Ds1NBXzfx6/6NT9h3ikVxXVcl+ZCnkqlQugHONksWVfGZZ5Hcz5nQ6UKQrx8zm4eBIaXHrLmbCFPtTzUXrlSIaoGuPkcOc9N5wMp+IeyXuEGPyw7SiulldZCynqLH99haROiTMy1szEb450ks1O1pKbmgZQ6oY60UULa8GjGuilTWtkQlvJOv3OkHDakjd8w72q8pLDhNEqyxkYPS580bow8Ll9WvuMI9wHghj/C7ZCxUv0tkgcjHX40LzNRNb48YjVzsltlJz0NZvyBtyjeNDZzZVd62s1m1qgoak18gqi7FPW/gVJZzO9uL5v9tFBSB3G0GxU8pzoOlypB2FGuhFbKeIbfAHuSEyW5ussTfyxrqO/1AeBWIcSdxtcpHSX70qOD53TnAdPIYJrR2oROe5xmE7A22VafnYB/oxWRAneSXn8c+CDwn0ZG4/BIMtLTXaY8rQmnt64c12Ww/2iq7e3Fh390FfA5k6LX3R0KxzKdPgNSdcp2k7Y/l8iy3bwzMhpZ62U/FY25x/6vXpxsWLDRr87qaQLxBl2d1fcLxBt7dbaeTn15WjmeJ8/S5Wm1wfPkH/fydD3Vrs+rCCnT6/M6dN2YbfFQH4VpZ3h9/lBfV9O09Pq8xnVFfH1eRdqRZ359/n8CAAD//7PdnxPUxX0FAAAAAElFTkSuQmCC;fontStyle=1" vertex="1" parent="1">
          <mxGeometry x="663.68" y="438.37" width="80.63" height="80.63" as="geometry" />
        </mxCell>
        <mxCell id="rJtXdkc1sMicTIPMUd31-5" value="" style="shape=image;imageAspect=0;aspect=fixed;verticalLabelPosition=bottom;verticalAlign=top;labelBackgroundColor=none;image=https://upload.wikimedia.org/wikipedia/commons/a/ab/Haproxy-logo.png;" vertex="1" parent="1">
          <mxGeometry x="522.1800000000001" y="450" width="127.14" height="100" as="geometry" />
        </mxCell>
        <mxCell id="23046e2b9bb16c14-69" style="edgeStyle=orthogonalEdgeStyle;html=1;startArrow=none;startFill=0;startSize=10;endArrow=none;endFill=0;endSize=10;strokeWidth=3;fontSize=12;fontColor=#FFFFFF;strokeColor=#FFFFFF;dashed=1;rounded=0;fontStyle=1;entryX=0.01;entryY=0.189;entryDx=0;entryDy=0;entryPerimeter=0;" parent="1" source="23046e2b9bb16c14-62" target="rJtXdkc1sMicTIPMUd31-7" edge="1">
          <mxGeometry relative="1" as="geometry">
            <mxPoint x="490" y="293" as="targetPoint" />
          </mxGeometry>
        </mxCell>
        <mxCell id="rcPoYwZRDyphzUQkZkZY-16" value="Potas&lt;br style=&quot;font-size: 12px;&quot;&gt;TCP 80&lt;br style=&quot;font-size: 12px;&quot;&gt;TCP 443" style="edgeLabel;html=1;align=left;verticalAlign=middle;resizable=0;points=[];labelBackgroundColor=none;fontColor=#030303;labelPosition=right;verticalLabelPosition=middle;fontStyle=1;fontSize=12;" parent="23046e2b9bb16c14-69" vertex="1" connectable="0">
          <mxGeometry x="-0.2258" relative="1" as="geometry">
            <mxPoint as="offset" />
          </mxGeometry>
        </mxCell>
      </root>
    </mxGraphModel>
  </diagram>
</mxfile>
